<?xml version="1.0" encoding="utf-8"?>
<!-- Generator: Adobe Illustrator 19.0.0, SVG Export Plug-In . SVG Version: 6.00 Build 0)  -->
<svg version="1.1" id="Layer_1" xmlns="http://www.w3.org/2000/svg" xmlns:xlink="http://www.w3.org/1999/xlink" x="0px" y="0px"
	 viewBox="0 0 960 404.1" style="enable-background:new 0 0 960 404.1;" xml:space="preserve">
<style type="text/css">
	.st0{fill:#16D36B;}
</style>
<g id="XMLID_1_">
	<path id="XMLID_101_" d="M654.3,389.5c-17.5,0-35.4,2.3-52.4-0.5c-28.6-4.6-51.9-19-60.1-49.1c-2.9-10.8-2.8-22.6-2.9-33.9
		c-0.1-7.6,5.2-12.5,12.4-14.5c9.1-2.5,18.3-2.5,27.3,0.3c8.9,2.8,12.5,8.4,13,18.9c0.2,4-0.1,8.2,0.8,12.1
		c3.5,15.4,12.7,22.9,29.3,23.2c21.8,0.4,43.5,0.4,65.3,0c18.3-0.3,28.4-9.7,30.3-27.8c0.7-6.9,0.6-14-0.1-21
		c-1.6-17.2-12.8-27.3-30.1-27.5c-22.7-0.2-45.4-0.1-68.1,0c-21.9,0-41.1-7.9-58.1-21.1c-11.7-9.1-17.5-22.1-18.6-36.4
		c-1.1-14.3-1.4-28.8-0.2-43c1.9-22.7,13.4-39.7,33.6-50.7c15-8.2,30.6-13,48-12.6c23.2,0.6,46.5-0.9,69.7,0.4
		c26.3,1.6,49,12.1,64.1,34.8c9.5,14.2,11.2,30.6,10.1,47.3c-0.5,6.9-4.4,11.6-11,13.9c-9.1,3.2-18.5,3.6-27.8,1.1
		c-8.6-2.3-12.8-8.1-13-17c0-2.2,0-4.4-0.2-6.6c-1.2-18.1-12.2-28.9-30.3-29.2c-20.5-0.3-40.9-0.3-61.4,0
		c-18.8,0.2-30.1,11.9-30.4,30.7c-0.1,3.9,0,7.7,0,11.6c0.2,20.5,11.4,32,31.8,32.2c23.1,0.2,46.1-0.1,69.2,0.1
		c28.6,0.1,60.5,20.7,70.4,44.9c6.1,15,5.9,30.7,5.1,46.3c-0.4,9.1-1.4,18.5-4.3,27.1c-8.4,25.4-28.7,37.8-52.9,44.7
		c-6.3,1.8-13.1,2.2-19.7,2.3c-12.9,0.3-25.8,0.1-38.7,0.1C654.3,390.2,654.3,389.8,654.3,389.5z"/>
	<path id="XMLID_100_" d="M893.4,106c12.7,0,24.6,0,36.6,0c14.6,0,20.2,5.7,20.3,20.5c0,1.7,0.1,3.3,0,5c-1,13.7-6.7,19-20.4,19
		c-11.4,0-22.9,0.1-34.3,0.1c-0.3,0-0.7,0.2-1.7,0.5c-0.1,1.7-0.4,3.6-0.4,5.5c0,54-0.1,108.1,0,162.1c0,22.9,6.1,28.7,29,28.7
		c4.6,0,9.3-0.2,13.8,0.3c7.7,0.9,12.7,4.9,13.5,12.4c0.7,6.8,0.4,14-0.9,20.8c-1.2,6.5-6.3,10.3-13.2,10.7
		c-24.3,1.4-47.7-0.9-69.5-13.5c-14.6-8.4-21.5-21.3-24.2-36.9c-1.3-7.8-1.7-15.8-1.7-23.7c-0.1-53.1-0.1-106.2-0.1-159.4
		c0-2.3,0-4.7,0-7.7c-6.3,0-12,0-17.7,0c-9.8-0.1-15.5-4.1-17.1-13.7c-1.1-6-1-12.5,0.1-18.5c1.5-8.2,7.2-12,15.5-12.2
		c6.2-0.1,12.5,0,19.3,0c0-5.9,0-11.2,0-16.5c0.1-11.8-0.2-23.6,0.4-35.4c0.6-12.5,5.9-18.5,18.3-20.4c5.7-0.9,11.8-0.8,17.5,0.2
		c11.4,1.9,16.8,8.8,16.9,20.4c0.1,14.8,0,29.5,0,44.3C893.4,100.7,893.4,102.9,893.4,106z"/>
	<path id="XMLID_99_" d="M195.1,266.1c-13.4-13.8-25.8-26.6-39.1-40.3c11.9,0,22.8,0,33.8,0c0.3-1.3,0.6-2,0.6-2.7
		c-0.1-14.7,0.1-29.5-0.4-44.2c-0.6-15.8-10.1-27-25.9-27.7c-22.6-1.1-45.3-1-68,0.1C80.7,152,72.7,162,71.6,177.6
		c-0.3,4.9-0.1,10-1.3,14.8c-2.6,11.1-11.4,16-27,15.7c-13.6-0.3-22.2-5.6-23.9-16.8c-4.2-27.7,3.6-55.1,31-71.1
		c16.4-9.6,33.7-15,53.1-14.3c21.5,0.7,43.1,0,64.7,0.2c30.7,0.2,62.4,22.4,70.6,49.6c2.1,7,3.1,14.4,3.5,21.7
		c0.6,12.1,0.3,24.3,0,36.5c0,2.1-0.9,4.8-2.3,6.3C225.3,235.5,210.4,250.5,195.1,266.1z"/>
	<path id="XMLID_98_" d="M423.3,248.7c0-40.2,0-80.4,0-120.7c0-15,5.6-21.8,20.4-23.5c5.6-0.6,11.5-0.2,17,1
		c9,1.9,14.1,8.5,14.8,17.7c0.2,2.2,0.2,4.4,0.2,6.6c0,79.3,0,158.7,0,238c0,3.8-0.1,7.9-1.4,11.4c-1.2,3.3-3.4,6.7-6,9
		c-8.5,7.3-30.2,6.7-38.6-0.7c-5.1-4.5-6.4-10.4-6.4-17C423.3,329.9,423.3,289.3,423.3,248.7z"/>
	<path id="XMLID_97_" d="M107.1,225.8c-4.7,7.7-14.3,11.1-14.9,21.4c-0.6,10.4,7.1,15.5,13.3,22.3c-7.3,0.5-13.7,0.7-20,1.3
		c-8.2,0.8-13.5,5.3-17.3,12.8C61.1,298,62,313,63.9,328.1c1.1,8.4,6.9,13.9,15.1,15.8c5.5,1.3,11.3,2,16.9,2.1
		c17.2,0.3,34.3,0.1,51.5,0.1c11.5,0,17.8,5.5,18,17c0.1,6.3-0.9,12.8-2.7,18.8c-1.6,5.6-6.7,8.5-12.4,8.5
		c-26.2-0.2-52.4,0-78.5-1.2c-15.1-0.7-28.9-7.5-41.4-15.8c-10.9-7.2-17.2-18.5-18.2-31c-1.5-19.6-2.6-39.5-0.8-59
		c2.4-24.8,17.7-41.3,40.6-50.9C69.7,225.1,88.1,225,107.1,225.8z"/>
	<path id="XMLID_96_" class="st0" d="M194.8,287.7c12-12.5,23.2-24.4,34.8-36c32.5-32.5,65.1-64.8,97.7-97.2c5-5,5.7-5,10.7-0.1
		c5.6,5.6,11.2,11.3,16.9,16.8c2.7,2.6,3.3,4.7,0.2,7.7c-52,51.6-103.9,103.2-155.7,155c-3.4,3.4-5.6,3.2-9-0.2
		c-26.5-26.7-53.1-53.4-79.9-79.8c-4.1-4-4-6.5,0.2-10.2c5.6-5,10.8-10.6,16.1-16c4.5-4.5,6.2-4.6,10.5-0.1
		c17.3,17.9,34.6,35.8,51.9,53.7C190.6,282.9,192.1,284.6,194.8,287.7z"/>
	<path id="XMLID_95_" d="M357,199.1c0,8.5,0,16.9,0,25.4c0,48.5,0,97,0,145.5c0,15.9-6.3,22.9-22.3,24.1c-4.2,0.3-8.5,0.2-12.7-0.5
		c-11.2-1.8-17.5-8.6-17.5-20c-0.2-40.2-0.1-80.4,0-120.6c0-1.5,0.5-3.5,1.5-4.5c16.5-16.8,33.1-33.5,49.7-50.2
		C356.1,198.5,356.6,198.8,357,199.1z"/>
	<path id="XMLID_94_" d="M357,152.9c-4.2-4.3-7.3-7.6-10.6-10.8c-8.7-8.4-19.3-8.4-27.8,0.3c-4.2,4.3-7.9,9.2-11.8,13.8
		c-0.7-0.5-1.4-1-2.1-1.5c-0.1-1.5-0.3-3.1-0.3-4.6c0-38.5,0-77,0-115.5c0-14.6,5.8-21.4,20.3-23.1c5.4-0.6,11.1-0.3,16.4,0.7
		c10.5,2,15.8,9.6,15.8,21.5c0,34.5,0,68.9,0,103.4C357,141.8,357,146.5,357,152.9z"/>
	<path id="XMLID_93_" d="M413.3,44.4c0.1-20.8,15.5-36,36.5-35.9c20.7,0,36,15.7,35.8,36.6c-0.2,20.5-15.6,35.8-36.2,35.7
		C428.6,80.7,413.2,65.2,413.3,44.4z"/>
	<path id="XMLID_92_" d="M242.1,313c0.1,0.8,0.4,1.7,0.4,2.5c0,19,0.2,38,0,56.9c-0.1,11.2-6.4,18.5-17.5,20
		c-6.5,0.8-13.3,0.7-19.8,0c-7.9-0.8-13.2-6.9-14-14.8c-0.3-2.9-0.3-5.9-0.3-8.8c0-5.5,0-11,0-17.4c10.8,1.8,16.9-5.1,23.1-11.7
		c8.8-9.4,17.5-18.8,26.3-28.2C240.8,312,241.4,312.5,242.1,313z"/>
</g>
</svg>
