<?xml version="1.0" encoding="utf-8"?>
<!-- Generator: Adobe Illustrator 19.0.0, SVG Export Plug-In . SVG Version: 6.00 Build 0)  -->
<svg version="1.1" id="Layer_1" xmlns="http://www.w3.org/2000/svg" xmlns:xlink="http://www.w3.org/1999/xlink" x="0px" y="0px"
	 viewBox="0 0 20 20" style="enable-background:new 0 0 20 20;" xml:space="preserve">
<style type="text/css">
	.st0{fill:#16D36B;}
</style>
<g id="XMLID_1_">
	<path id="XMLID_3_" class="st0" d="M10,19.4c-5.2,0-9.4-4.2-9.4-9.4S4.8,0.7,10,0.7s9.4,4.2,9.4,9.4S15.2,19.4,10,19.4z M16.1,7.5
		l-1.1-1.1c-0.1-0.1-0.3-0.2-0.5-0.2S14,6.3,13.9,6.4l-5,5L6.1,8.6C6,8.5,5.8,8.4,5.6,8.4S5.2,8.5,5,8.6L3.9,9.7
		c-0.1,0.1-0.2,0.4-0.2,0.6s0.1,0.4,0.2,0.5l4.4,4.4c0.1,0.1,0.4,0.2,0.5,0.2c0.2,0,0.4-0.1,0.6-0.2l6.6-6.6
		c0.1-0.1,0.2-0.3,0.2-0.5S16.2,7.7,16.1,7.5z"/>
</g>
</svg>
