<?xml version="1.0" encoding="utf-8"?>
<!-- Generator: Adobe Illustrator 19.0.0, SVG Export Plug-In . SVG Version: 6.00 Build 0)  -->
<svg version="1.1" id="Layer_1" xmlns="http://www.w3.org/2000/svg" xmlns:xlink="http://www.w3.org/1999/xlink" x="0px" y="0px"
	 viewBox="0 0 20 20" style="enable-background:new 0 0 20 20;" xml:space="preserve">
<style type="text/css">
	.st0{fill:#969696;}
</style>
<g id="XMLID_1_">
	<path id="XMLID_3_" class="st0" d="M10,0.3c1.7,0,3.4,0.4,4.8,1.3c1.5,0.9,2.7,2,3.5,3.5s1.3,3.1,1.3,4.8s-0.4,3.4-1.3,4.8
		s-2,2.7-3.5,3.5c-1.5,0.9-3.1,1.3-4.8,1.3s-3.4-0.4-4.8-1.3s-2.7-2.1-3.5-3.5s-1.4-3-1.4-4.7s0.4-3.4,1.3-4.8s2-2.7,3.5-3.5
		S8.3,0.3,10,0.3z M10,17.8c1.4,0,2.7-0.4,3.9-1.1c1.2-0.7,2.1-1.7,2.9-2.9c0.7-1.2,1.1-2.5,1.1-3.9S17.5,7.2,16.8,6
		s-1.7-2.1-2.9-2.9C12.7,2.4,11.4,2,10,2S7.3,2.5,6.1,3.2S3.9,4.9,3.2,6.1c-0.7,1.1-1,2.5-1,3.9s0.4,2.7,1.1,3.9S5,16,6.2,16.8
		C7.3,17.4,8.6,17.8,10,17.8z"/>
</g>
</svg>
